<?xml version="1.0" encoding="utf-8"?><svg xml:space="preserve" viewBox="0 0 100 100" y="0" x="0" xmlns="http://www.w3.org/2000/svg" id="圖層_1" version="1.1" width="45px" height="45px" xmlns:xlink="http://www.w3.org/1999/xlink" style="width:100%;height:100%;background-size:initial;background-repeat-y:initial;background-repeat-x:initial;background-position-y:initial;background-position-x:initial;background-origin:initial;background-image:initial;background-color:rgb(241, 242, 243);background-clip:initial;background-attachment:initial;animation-play-state:paused" ><g class="ldl-scale" style="transform-origin:50% 50%;transform:rotate(0deg) scale(0.8, 0.8);animation-play-state:paused" ><path fill="#333" d="M37.7 24.5V12.8c0-1.5-1.2-2.8-2.8-2.8H23.2c-1.5 0-2.8 1.2-2.8 2.8v11.7c0 1.5 1.2 2.8 2.8 2.8h11.7c1.6-.1 2.8-1.3 2.8-2.8z" style="fill:rgb(152, 26, 35);animation-play-state:paused" ></path>
<path fill="#333" d="M58.6 24.5V12.8c0-1.5-1.2-2.8-2.8-2.8H44.2c-1.5 0-2.8 1.2-2.8 2.8v11.7c0 1.5 1.2 2.8 2.8 2.8h11.7c1.5-.1 2.7-1.3 2.7-2.8z" style="fill:rgb(152, 26, 35);animation-play-state:paused" ></path>
<path fill="#333" d="M79.5 24.5V12.8c0-1.5-1.2-2.8-2.8-2.8H65.1c-1.5 0-2.8 1.2-2.8 2.8v11.7c0 1.5 1.2 2.8 2.8 2.8h11.7c1.5-.1 2.7-1.3 2.7-2.8z" style="fill:rgb(152, 26, 35);animation-play-state:paused" ></path>
<path fill="#333" d="M37.7 45.4V33.7c0-1.5-1.2-2.8-2.8-2.8H23.2c-1.5 0-2.8 1.2-2.8 2.8v11.7c0 1.5 1.2 2.8 2.8 2.8h11.7c1.6 0 2.8-1.3 2.8-2.8z" style="fill:rgb(152, 26, 35);animation-play-state:paused" ></path>
<path fill="#333" d="M58.6 45.4V33.7c0-1.5-1.2-2.8-2.8-2.8H44.2c-1.5 0-2.8 1.2-2.8 2.8v11.7c0 1.5 1.2 2.8 2.8 2.8h11.7c1.5 0 2.7-1.3 2.7-2.8z" style="fill:rgb(152, 26, 35);animation-play-state:paused" ></path>
<path fill="#333" d="M79.5 45.4V33.7c0-1.5-1.2-2.8-2.8-2.8H65.1c-1.5 0-2.8 1.2-2.8 2.8v11.7c0 1.5 1.2 2.8 2.8 2.8h11.7c1.5 0 2.7-1.3 2.7-2.8z" style="fill:rgb(152, 26, 35);animation-play-state:paused" ></path>
<path fill="#333" d="M37.7 66.3V54.6c0-1.5-1.2-2.8-2.8-2.8H23.2c-1.5 0-2.8 1.2-2.8 2.8v11.7c0 1.5 1.2 2.8 2.8 2.8h11.7c1.6 0 2.8-1.3 2.8-2.8z" style="fill:rgb(152, 26, 35);animation-play-state:paused" ></path>
<path fill="#333" d="M58.6 66.3V54.6c0-1.5-1.2-2.8-2.8-2.8H44.2c-1.5 0-2.8 1.2-2.8 2.8v11.7c0 1.5 1.2 2.8 2.8 2.8h11.7c1.5 0 2.7-1.3 2.7-2.8z" style="fill:rgb(152, 26, 35);animation-play-state:paused" ></path>
<path fill="#333" d="M79.5 66.3V54.6c0-1.5-1.2-2.8-2.8-2.8H65.1c-1.5 0-2.8 1.2-2.8 2.8v11.7c0 1.5 1.2 2.8 2.8 2.8h11.7c1.5 0 2.7-1.3 2.7-2.8z" style="fill:rgb(152, 26, 35);animation-play-state:paused" ></path>
<path fill="#333" d="M58.6 86.3v-9.8c0-2-1.5-3.7-3.4-3.7H23.9c-1.9 0-3.4 1.7-3.4 3.7v9.8c0 2 1.5 3.7 3.4 3.7h31.4c1.8 0 3.3-1.7 3.3-3.7z" style="fill:rgb(152, 26, 35);animation-play-state:paused" ></path>
<path fill="#333" d="M79.5 87.2V75.5c0-1.5-1.2-2.8-2.8-2.8H65.1c-1.5 0-2.8 1.2-2.8 2.8v11.7c0 1.5 1.2 2.8 2.8 2.8h11.7c1.5 0 2.7-1.2 2.7-2.8z" style="fill:rgb(152, 26, 35);animation-play-state:paused" ></path>
<metadata xmlns:d="https://loading.io/stock/" style="animation-play-state:paused" ><d:name style="animation-play-state:paused" >keypad</d:name>
<d:tags style="animation-play-state:paused" >keyboard,numpad,key,input,type,number,keypad,web application</d:tags>
<d:license style="animation-play-state:paused" >by</d:license>
<d:slug style="animation-play-state:paused" >aiiv1o</d:slug></metadata></g><!-- generated by https://loading.io/ --></svg>